<svg width="445" height="138" viewBox="0 0 445 138" fill="none" xmlns="http://www.w3.org/2000/svg">
<g clip-path="url(#clip0_285_56)">
<path d="M49.1467 83.9278H37.6366L16.6751 103.389C15.7525 104.249 14.2589 103.49 14.4032 102.235L16.5558 83.9278H7.19218L1.06061 136.074H10.4243L12.8907 115.138C13.0351 113.92 14.5915 113.5 15.3258 114.485L31.5051 136.074H43.5737L22.1477 108.059L49.1529 83.9278H49.1467Z" fill="white" stroke="black" stroke-width="1.88277"/>
<path d="M285.021 0.941406H273.511L252.549 20.403C251.627 21.2628 250.133 20.5034 250.277 19.2482L252.43 0.941406H243.066L236.928 53.088H246.292L248.758 32.1515C248.903 30.934 250.459 30.5135 251.194 31.4988L267.373 53.088H279.441L258.015 25.0723L285.021 0.941406Z" fill="white" stroke="black" stroke-width="1.88277"/>
<path d="M50.5651 136.074L76.2587 83.9278H85.8985L99.3164 136.074H89.1933L86.2876 123.661H65.8344L60.0731 136.074H50.5713H50.5651ZM70.5413 115.759H83.5638C84.0094 115.759 84.3358 115.345 84.2353 114.912L79.8422 96.398C79.6916 95.7642 78.8255 95.6763 78.5494 96.2662L69.92 114.78C69.7066 115.238 70.0392 115.759 70.5413 115.759Z" fill="white" stroke="black" stroke-width="1.88277"/>
<path d="M121.081 136.074L126.158 92.94C126.221 92.3877 125.794 91.9045 125.236 91.9045H109.778L110.72 83.9278H153.296L152.354 91.9045H136.539C136.068 91.9045 135.673 92.2559 135.616 92.7266L130.514 136.074H121.081Z" fill="white" stroke="black" stroke-width="1.88277"/>
<path d="M155.197 136.074L180.891 83.9278H190.53L203.948 136.074H193.825L190.92 123.661H170.466L164.705 136.074H155.203H155.197ZM175.173 115.759H188.196C188.641 115.759 188.968 115.345 188.867 114.912L184.474 96.398C184.324 95.7642 183.458 95.6763 183.181 96.2662L174.552 114.78C174.339 115.238 174.671 115.759 175.173 115.759Z" fill="white" stroke="black" stroke-width="1.88277"/>
<path d="M228.487 136.074L230.872 115.828L217.705 83.9341H227.966L236.012 105.147C236.357 106.057 237.594 106.17 238.102 105.347L251.262 83.9404H260.971L240.236 115.766L237.845 136.081H228.481L228.487 136.074Z" fill="white" stroke="black" stroke-width="1.88277"/>
<path d="M261.147 136.074L286.841 83.9278H296.481L309.898 136.074H299.775L296.87 123.661H276.416L270.655 136.074H261.153H261.147ZM281.123 115.759H294.146C294.591 115.759 294.918 115.345 294.817 114.912L290.424 96.398C290.274 95.7642 289.408 95.6763 289.131 96.2662L280.502 114.78C280.289 115.238 280.621 115.759 281.123 115.759Z" fill="white" stroke="black" stroke-width="1.88277"/>
<path d="M323.341 136.074L332.874 83.9278H346.393L354.175 120.334L371.013 83.9278H384.324L381.582 136.074H372.501L374.459 98.8833C374.509 97.9607 373.241 97.6407 372.852 98.4816L356.39 133.922H348.207L340.5 98.5758C340.305 97.6783 339.012 97.6972 338.849 98.6009L332.002 136.068H323.335L323.341 136.074Z" fill="white" stroke="black" stroke-width="1.88277"/>
<path d="M395.037 136.074L420.731 83.9278H430.371L443.789 136.074H433.666L430.76 123.661H410.307L404.545 136.074H395.044H395.037ZM415.014 115.759H428.036C428.482 115.759 428.808 115.345 428.708 114.912L424.315 96.398C424.164 95.7642 423.298 95.6763 423.022 96.2662L414.392 114.78C414.179 115.238 414.512 115.759 415.014 115.759Z" fill="white" stroke="black" stroke-width="1.88277"/>
<path d="M3.3576 52.3286L28.8692 1.70078H38.509L52.1026 52.3286H41.9796L39.0299 40.2788H18.5767L12.8593 52.3286H3.3576ZM23.8673 32.6034H35.7978C36.4882 32.6034 36.9965 31.957 36.8333 31.2854L32.754 14.8237C32.5155 13.8509 31.1913 13.7192 30.7582 14.6229L22.9134 31.0846C22.5745 31.7938 23.0891 32.6097 23.8736 32.6097L23.8673 32.6034Z" fill="white" stroke="black" stroke-width="1.88277"/>
<path d="M79.4217 52.3286L84.3357 10.5624C84.4048 9.96614 83.9403 9.43897 83.3378 9.43897H67.9619L68.8719 1.69449H111.448L110.538 9.43897H94.7914C94.283 9.43897 93.8563 9.8218 93.7935 10.3239L88.8481 52.3223H79.4154L79.4217 52.3286Z" fill="white" stroke="black" stroke-width="1.88277"/>
<path d="M121.753 42.6323C125.123 44.0444 129.849 45.1238 134.706 45.1238C140.944 45.1238 143.806 42.6323 144.195 39.3311C144.61 35.8292 143.706 34.0782 137.474 31.0532L134.129 29.4403C126.372 25.8066 124.439 21.6331 125.142 15.6396C126.127 7.2926 133.319 0.960205 144.967 0.960205C148.363 0.960205 152.668 1.49993 156.358 2.57311L155.341 11.1899C150.81 9.63979 148.036 9.03731 144.013 9.03731C138.466 9.03731 135.114 10.9891 134.706 14.4911C134.367 17.3843 135.208 19.0662 140.254 21.5578L143.8 23.2397C151.739 27.0743 155.116 30.7834 154.337 37.3793C153.195 47.0756 145.677 53.2009 133.2 53.2009C128.28 53.2009 123.943 52.3223 120.749 51.1801L121.753 42.6323Z" fill="white" stroke="black" stroke-width="1.88277"/>
<path d="M210.331 1.70078H219.626L215.891 33.413C214.335 46.6112 203.497 53.2762 191.917 53.2762C179.366 53.2762 171.772 46.5422 173.316 33.413L177.05 1.70078H186.344L182.855 31.3231C181.838 39.9399 184.606 45.3247 193.549 45.3247C201.174 45.3247 205.724 40.8813 206.848 31.3231L210.337 1.70078H210.331Z" fill="white" stroke="black" stroke-width="1.88277"/>
<path d="M299.505 52.3286L305.468 1.70078H314.9L308.938 52.3286H299.505Z" fill="white" stroke="black" stroke-width="1.88277"/>
</g>
<defs>
<clipPath id="clip0_285_56">
<rect width="445" height="137.016" fill="white"/>
</clipPath>
</defs>
</svg>
